<?xml version="1.0" encoding="utf-8"?>
<!-- Generator: Adobe Illustrator 16.0.0, SVG Export Plug-In . SVG Version: 6.00 Build 0)  -->
<!DOCTYPE svg PUBLIC "-//W3C//DTD SVG 1.1//EN" "http://www.w3.org/Graphics/SVG/1.1/DTD/svg11.dtd">
<svg version="1.1" id="Layer_1" xmlns="http://www.w3.org/2000/svg" xmlns:xlink="http://www.w3.org/1999/xlink" x="0px" y="0px"
	 width="24.09px" height="32px" viewBox="0 0 24.09 32" enable-background="new 0 0 24.09 32" xml:space="preserve">
<g>
	<path fill="#8CB63C" d="M24.09,11.977c0-6.679-5.407-12.045-12.045-12.045C5.366-0.068,0,5.338,0,11.977
		c0,2.663,0.874,5.088,2.305,7.115l0,0c0,0,0,0,8.626,12.163c0.198,0.279,0.556,0.677,1.152,0.677c0.557,0,0.954-0.397,1.153-0.677
		c8.626-12.163,8.626-12.163,8.626-12.163l0,0C23.214,17.104,24.09,14.64,24.09,11.977z"/>
	<g>
		<path fill="#FFFFFF" d="M7.751,12.254l1.153,0.517L7.711,9.114c-1.988,0.318-3.378,1.749-3.378,1.749l0.874,0.318
			c-0.397,3.339,2.226,5.763,2.187,5.684C6.162,14.878,7.751,12.254,7.751,12.254z"/>
		<path fill="#FFFFFF" d="M7.711,15.236c0,0-1.271,3.338,3.816,3.338l-0.278-3.179C11.21,15.395,9.62,16.349,7.711,15.236z"/>
		<path fill="#FFFFFF" d="M6.996,7.564l2.902,1.312c0,0-0.04-1.868,1.909-2.941C11.807,5.934,9.54,3.151,6.996,7.564z"/>
		<path fill="#FFFFFF" d="M14.35,7.484L13.356,8.24l3.776,0.755c0.715-1.908,0.159-3.776,0.159-3.776l-0.716,0.597
			c-2.704-2.028-6.082-0.954-6.003-0.954C12.879,4.781,14.35,7.484,14.35,7.484z"/>
		<path fill="#FFFFFF" d="M15.185,15.554l-0.158-1.232l-2.545,2.862c1.272,1.59,3.22,2.027,3.22,2.027l-0.158-0.914
			c3.1-1.353,3.854-4.81,3.816-4.73C18.246,15.633,15.185,15.554,15.185,15.554z"/>
		<path fill="#FFFFFF" d="M17.809,14.123c0,0,3.537-0.556,0.994-4.969l-2.584,1.829C16.179,11.022,17.848,11.896,17.809,14.123z"/>
	</g>
</g>
</svg>
