<?xml version="1.0" encoding="utf-8"?>
<!-- Generator: Adobe Illustrator 16.0.0, SVG Export Plug-In . SVG Version: 6.00 Build 0)  -->
<!DOCTYPE svg PUBLIC "-//W3C//DTD SVG 1.1//EN" "http://www.w3.org/Graphics/SVG/1.1/DTD/svg11.dtd">
<svg version="1.1" id="Layer_1" xmlns="http://www.w3.org/2000/svg" xmlns:xlink="http://www.w3.org/1999/xlink" x="0px" y="0px"
	 width="98px" height="32px" viewBox="0 0 98 32" enable-background="new 0 0 98 32" xml:space="preserve">
<g id="g3678" transform="matrix(0.16591248,0,0,0.16591248,-0.76930184,-32.247794)">
	<path id="path7" d="M594.788,361.177c0,14.391-11.66,26.063-26.057,26.063H31.218c-14.391,0-26.063-11.672-26.063-26.063V220.433
		c0-14.397,11.672-26.066,26.063-26.066H568.73c14.397,0,26.057,11.669,26.057,26.066V361.177z"/>
	<g id="PLAY_1_">
		<g>
			<defs>
				<path id="SVGID_1_" d="M132.937,279.264l-26.59-15.348c0,0-48.433-27.97-51.285-29.613c-2.846-1.645-5.683-0.65-5.683,2.787
					c0,5.724,0,59.711,0,59.711s0,58.354,0,60.932c0,2.572,2.031,3.685,4.503,2.254c2.475-1.424,52.465-30.289,52.465-30.289
					l26.59-15.351c0,0,22.555-13.026,25.554-14.75c2.999-1.736,2.711-4.111,0.18-5.471
					C156.143,292.761,132.937,279.264,132.937,279.264z"/>
			</defs>
			<clipPath id="SVGID_2_">
				<use xlink:href="#SVGID_1_"  overflow="visible"/>
			</clipPath>
			
				<linearGradient id="polygon130_1_" gradientUnits="userSpaceOnUse" x1="14087.0039" y1="-11192.0615" x2="14087.0039" y2="-11322.6826" gradientTransform="matrix(0.1659 0 0 -0.1659 -2254.8955 -1625.4091)">
				<stop  offset="0" style="stop-color:#257CB0"/>
				<stop  offset="0.2863" style="stop-color:#4A93B5"/>
				<stop  offset="0.767" style="stop-color:#78BCBB"/>
				<stop  offset="1" style="stop-color:#89CFBD"/>
			</linearGradient>
			<polygon id="polygon130" clip-path="url(#SVGID_2_)" fill="url(#polygon130_1_)" points="115.247,296.81 49.379,231.499 
				49.379,296.801 49.379,362.119 			"/>
		</g>
		<g>
			<defs>
				<path id="SVGID_3_" d="M132.937,279.264l-26.59-15.348c0,0-48.433-27.97-51.285-29.613c-2.846-1.645-5.683-0.65-5.683,2.787
					c0,5.724,0,59.711,0,59.711s0,58.354,0,60.932c0,2.572,2.031,3.685,4.503,2.254c2.475-1.424,52.465-30.289,52.465-30.289
					l26.59-15.351c0,0,22.555-13.026,25.554-14.75c2.999-1.736,2.711-4.111,0.18-5.471
					C156.143,292.761,132.937,279.264,132.937,279.264z"/>
			</defs>
			<clipPath id="SVGID_4_">
				<use xlink:href="#SVGID_3_"  overflow="visible"/>
			</clipPath>
			
				<linearGradient id="polygon137_1_" gradientUnits="userSpaceOnUse" x1="13888.5029" y1="-11387.4863" x2="13972.0615" y2="-11387.4863" gradientTransform="matrix(0.1659 0 0 -0.1659 -2254.8955 -1625.4091)">
				<stop  offset="0" style="stop-color:#52C1AD"/>
				<stop  offset="1" style="stop-color:#DEE89A"/>
			</linearGradient>
			<polygon id="polygon137" clip-path="url(#SVGID_4_)" fill="url(#polygon137_1_)" points="49.379,231.499 115.247,296.81 
				132.937,279.264 106.35,263.913 49.379,231.025 			"/>
		</g>
		<g>
			<defs>
				<path id="SVGID_5_" d="M132.937,279.264l-26.59-15.348c0,0-48.433-27.97-51.285-29.613c-2.846-1.645-5.683-0.65-5.683,2.787
					c0,5.724,0,59.711,0,59.711s0,58.354,0,60.932c0,2.572,2.031,3.685,4.503,2.254c2.475-1.424,52.465-30.289,52.465-30.289
					l26.59-15.351c0,0,22.555-13.026,25.554-14.75c2.999-1.736,2.711-4.111,0.18-5.471
					C156.143,292.761,132.937,279.264,132.937,279.264z"/>
			</defs>
			<clipPath id="SVGID_6_">
				<use xlink:href="#SVGID_5_"  overflow="visible"/>
			</clipPath>
			
				<linearGradient id="polygon150_1_" gradientUnits="userSpaceOnUse" x1="14140.3193" y1="-11585.7188" x2="14140.3193" y2="-11651.5039" gradientTransform="matrix(0.1659 0 0 -0.1659 -2254.8955 -1625.4091)">
				<stop  offset="0" style="stop-color:#EC413D"/>
				<stop  offset="0.1668" style="stop-color:#DA4452"/>
				<stop  offset="0.5748" style="stop-color:#B0487A"/>
				<stop  offset="0.8619" style="stop-color:#954A92"/>
				<stop  offset="1" style="stop-color:#8A4A9D"/>
			</linearGradient>
			<polygon id="polygon150" clip-path="url(#SVGID_6_)" fill="url(#polygon150_1_)" points="132.937,314.348 115.247,296.81 
				49.379,362.119 49.379,362.595 106.35,329.698 			"/>
		</g>
		<g>
			<defs>
				<path id="SVGID_7_" d="M132.937,279.264l-26.59-15.348c0,0-48.433-27.97-51.285-29.613c-2.846-1.645-5.683-0.65-5.683,2.787
					c0,5.724,0,59.711,0,59.711s0,58.354,0,60.932c0,2.572,2.031,3.685,4.503,2.254c2.475-1.424,52.465-30.289,52.465-30.289
					l26.59-15.351c0,0,22.555-13.026,25.554-14.75c2.999-1.736,2.711-4.111,0.18-5.471
					C156.143,292.761,132.937,279.264,132.937,279.264z"/>
			</defs>
			<clipPath id="SVGID_8_">
				<use xlink:href="#SVGID_7_"  overflow="visible"/>
			</clipPath>
			
				<linearGradient id="polygon161_1_" gradientUnits="userSpaceOnUse" x1="14430.3711" y1="-11479.958" x2="14430.3711" y2="-11515.04" gradientTransform="matrix(0.1659 0 0 -0.1659 -2254.8955 -1625.4091)">
				<stop  offset="0" style="stop-color:#F58879"/>
				<stop  offset="0.1194" style="stop-color:#F69079"/>
				<stop  offset="0.7128" style="stop-color:#FCB877"/>
				<stop  offset="1" style="stop-color:#FEC874"/>
			</linearGradient>
			<polygon id="polygon161" clip-path="url(#SVGID_8_)" fill="url(#polygon161_1_)" points="163.318,296.801 132.937,279.264 
				115.247,296.81 132.937,314.348 			"/>
		</g>
	</g>
	<g id="g163">
		<path id="path165" fill="#F9F9F9" d="M464.041,322.341c-2.478,0-4.732-0.459-6.781-1.371c-2.042-0.912-3.761-2.319-5.144-4.203
			h-0.418c0.283,2.207,0.418,4.314,0.418,6.304v15.627h-5.751v-55.037h4.679l0.795,5.2h0.277c1.483-2.081,3.202-3.582,5.168-4.506
			c1.96-0.924,4.209-1.389,6.757-1.389c5.033,0,8.923,1.725,11.66,5.168c2.737,3.44,4.108,8.276,4.108,14.483
			c0,6.239-1.389,11.089-4.173,14.544C472.853,320.61,468.986,322.341,464.041,322.341L464.041,322.341z M463.205,287.852
			c-3.879,0-6.687,1.08-8.411,3.223c-1.742,2.151-2.631,5.571-2.678,10.259v1.283c0,5.339,0.889,9.153,2.678,11.46
			c1.778,2.296,4.626,3.449,8.552,3.449c3.279,0,5.857-1.33,7.717-3.991c1.86-2.655,2.79-6.316,2.79-10.983
			c0-4.738-0.93-8.373-2.79-10.904C469.203,289.117,466.584,287.852,463.205,287.852L463.205,287.852z"/>
		<path id="path167" fill="#F9F9F9" d="M493.13,321.646h-5.757v-53.931h5.757V321.646z"/>
		<path id="path169" fill="#F9F9F9" d="M526.209,321.646l-1.148-5.409h-0.271c-1.901,2.39-3.785,3.997-5.674,4.838
			c-1.878,0.848-4.232,1.266-7.051,1.266c-3.761,0-6.716-0.977-8.853-2.914c-2.137-1.942-3.202-4.697-3.202-8.282
			c0-7.669,6.133-11.69,18.4-12.066l6.445-0.2v-2.363c0-2.978-0.636-5.18-1.925-6.601c-1.277-1.421-3.331-2.131-6.145-2.131
			c-3.173,0-6.751,0.971-10.748,2.911l-1.766-4.403c1.872-1.015,3.92-1.813,6.145-2.39c2.237-0.58,4.467-0.868,6.71-0.868
			c4.526,0,7.887,1.004,10.071,3.017c2.178,2.007,3.279,5.233,3.279,9.665v25.931H526.209L526.209,321.646z M513.213,317.591
			c3.585,0,6.392-0.983,8.441-2.943c2.037-1.966,3.067-4.715,3.067-8.252v-3.432l-5.757,0.241c-4.573,0.165-7.864,0.871-9.894,2.131
			c-2.025,1.266-3.031,3.22-3.031,5.88c0,2.072,0.63,3.661,1.884,4.75C509.181,317.049,510.947,317.591,513.213,317.591z"/>
		<path id="path171" fill="#F9F9F9" d="M533.814,283.658h6.163l8.317,21.666c1.831,4.938,2.961,8.511,3.402,10.707h0.277
			c0.3-1.177,0.93-3.19,1.889-6.051c0.959-2.849,4.097-11.625,9.406-26.322h6.169l-16.322,43.256
			c-1.619,4.279-3.502,7.305-5.668,9.1c-2.154,1.795-4.809,2.684-7.946,2.684c-1.766,0-3.496-0.194-5.203-0.589v-4.609
			c1.271,0.283,2.696,0.418,4.267,0.418c3.95,0,6.757-2.219,8.452-6.657l2.113-5.409L533.814,283.658L533.814,283.658z"/>
	</g>
	<g id="g173">
		<path id="path175" fill="#F9F9F9" d="M357.463,287.19c1.831,1.51,5.645,4.685,5.645,10.724c0,5.88-3.337,8.664-6.681,11.284
			c-1.03,1.036-2.225,2.154-2.225,3.897c0,1.742,1.195,2.702,2.066,3.414l2.861,2.225c3.502,2.937,6.681,5.645,6.681,11.13
			c0,7.463-7.234,15.009-20.901,15.009c-11.525,0-17.081-5.486-17.081-11.36c0-2.866,1.424-6.91,6.116-9.7
			c4.927-3.02,11.601-3.408,15.18-3.655c-1.118-1.424-2.384-2.937-2.384-5.392c0-1.354,0.394-2.148,0.789-3.102
			c-0.871,0.082-1.754,0.153-2.537,0.153c-8.429,0-13.191-6.275-13.191-12.472c0-3.655,1.666-7.705,5.086-10.642
			c4.526-3.735,9.93-4.37,14.227-4.37h16.363l-5.086,2.858H357.463L357.463,287.19z M351.824,322.464
			c-0.636-0.082-1.042-0.082-1.825-0.082c-0.724,0-5.009,0.165-8.346,1.277c-1.754,0.636-6.834,2.537-6.834,8.182
			c0,5.639,5.486,9.7,13.985,9.7c7.622,0,11.684-3.661,11.684-8.588C360.488,328.898,357.863,326.761,351.824,322.464
			L351.824,322.464z M354.12,307.373c1.836-1.831,1.99-4.367,1.99-5.81c0-5.712-3.414-14.609-10.006-14.609
			c-2.072,0-4.291,1.03-5.562,2.622c-1.348,1.666-1.754,3.808-1.754,5.883c0,5.321,3.102,14.138,9.936,14.138
			C350.712,309.598,352.848,308.644,354.12,307.373L354.12,307.373z"/>
		<path id="path177" fill="#F9F9F9" d="M307.443,321.193c-12.608,0-19.353-9.83-19.353-18.718c0-10.395,8.485-19.274,20.548-19.274
			c11.654,0,18.953,9.117,18.953,18.715C327.591,311.275,320.381,321.193,307.443,321.193z M317.361,314.771
			c1.901-2.537,2.378-5.715,2.378-8.811c0-6.981-3.331-20.304-13.167-20.304c-2.616,0-5.233,1.033-7.137,2.702
			c-3.096,2.772-3.652,6.266-3.652,9.68c0,7.846,3.885,20.778,13.485,20.778C312.364,318.815,315.543,317.308,317.361,314.771z"/>
		<path id="path179" fill="#F9F9F9" d="M264.452,321.193c-12.614,0-19.359-9.83-19.359-18.718c0-10.395,8.491-19.274,20.551-19.274
			c11.657,0,18.956,9.117,18.956,18.715C284.6,311.275,277.384,321.193,264.452,321.193z M274.367,314.771
			c1.901-2.537,2.381-5.715,2.381-8.811c0-6.981-3.334-20.304-13.17-20.304c-2.616,0-5.236,1.033-7.14,2.702
			c-3.093,2.772-3.646,6.266-3.646,9.68c0,7.846,3.885,20.778,13.485,20.778C269.373,318.815,272.545,317.308,274.367,314.771z"/>
		<path id="path181" fill="#F9F9F9" d="M239.033,319.957l-11.404,2.631c-4.629,0.718-8.77,1.348-13.158,1.348
			c-22.011,0-30.381-16.187-30.381-28.871c0-15.468,11.878-29.819,32.217-29.819c4.309,0,8.449,0.636,12.199,1.672
			c5.983,1.678,8.77,3.746,10.527,4.947l-6.622,6.298l-2.79,0.636l1.992-3.19c-2.708-2.631-7.658-7.493-17.064-7.493
			c-12.602,0-22.096,9.571-22.096,23.529c0,14.992,10.851,29.101,28.232,29.101c5.109,0,7.734-1.036,10.13-1.995v-12.832
			l-12.04,0.636l6.378-3.426h16.908l-2.072,1.984c-0.562,0.483-0.639,0.647-0.801,1.277c-0.079,0.718-0.156,3.031-0.156,3.832
			V319.957L239.033,319.957z"/>
		<path id="path183" fill="#F9F9F9" d="M382.667,317.661c-2.631-0.247-3.178-0.718-3.178-3.832v-0.877v-44.266
			c0.012-0.171,0.024-0.347,0.041-0.512c0.324-2.79,1.118-3.267,3.596-4.706h-11.413l-5.986,2.869h6.104v0.038l-0.012-0.032v46.608
			v2.631c0,1.589-0.312,1.831-2.142,4.22h14.115l2.949-1.748C385.392,317.891,384.032,317.815,382.667,317.661L382.667,317.661z"/>
		<path id="path185" fill="#F9F9F9" d="M415.122,318.391c-0.865,0.477-1.736,1.036-2.602,1.424
			c-2.619,1.183-5.315,1.507-7.699,1.507c-2.525,0-6.486-0.159-10.53-3.09c-5.615-3.967-8.076-10.777-8.076-16.716
			c0-12.272,9.977-18.291,18.135-18.291c2.849,0,5.786,0.712,8.158,2.219c3.955,2.608,4.991,6.016,5.539,7.837l-18.606,7.522
			l-6.098,0.477c1.978,10.053,8.788,15.916,16.31,15.916c4.044,0,6.975-1.424,9.665-2.766L415.122,318.391L415.122,318.391z
			 M407.683,294.785c1.495-0.55,2.29-1.03,2.29-2.137c0-3.164-3.561-6.813-7.834-6.813c-3.178,0-9.117,2.457-9.117,11.007
			c0,1.348,0.159,2.778,0.241,4.209L407.683,294.785z"/>
		<g id="g187">
			<path id="path189" fill="#F9F9F9" d="M422.763,283.767v5.224h-0.63v-5.224h-1.73v-0.542h4.091v0.542H422.763z"/>
			<path id="path191" fill="#F9F9F9" d="M429.891,288.991v-5.271h-0.029l-1.607,5.271h-0.494l-1.63-5.271h-0.018v5.271h-0.577
				v-5.765h0.989l1.466,4.662h0.029l1.436-4.662h1.007v5.765H429.891z"/>
		</g>
	</g>
	<g id="g193">
		<path id="path195" fill="#F9F9FA" d="M199.926,249.719h-3.964c0-0.547-0.377-2.092-1.127-4.635h-5.721
			c-0.777,2.505-1.165,4.047-1.165,4.635h-3.726c0-0.324,0.962-2.967,2.893-7.926c1.928-4.965,2.89-7.699,2.89-8.202h4.682
			c0,0.474,0.871,3.167,2.619,8.082C199.049,246.591,199.926,249.269,199.926,249.719z M194.205,242.718
			c-1.413-4.256-2.119-6.56-2.119-6.907h-0.197c0,0.324-0.733,2.622-2.193,6.907H194.205z"/>
		<path id="path197" fill="#F9F9FA" d="M215.895,249.719h-3.061c0-0.341-1.133-2.128-3.405-5.365
			c-2.375-3.411-3.729-5.742-4.061-6.996h-0.197c0.206,1.807,0.309,3.443,0.309,4.903c0,2.042,0.059,4.526,0.174,7.458h-3.046
			c0.124-2.56,0.185-5.371,0.185-8.435c0-3.014-0.062-5.58-0.185-7.69h3.676c0,0.439,1.021,2.187,3.061,5.239
			c2.169,3.243,3.417,5.442,3.741,6.601h0.185c-0.2-1.839-0.3-3.493-0.3-4.956c0-2.234-0.056-4.532-0.171-6.884h3.096
			c-0.118,2.048-0.174,4.612-0.174,7.69C215.722,244.389,215.777,247.197,215.895,249.719z"/>
		<path id="path199" fill="#F9F9FA" d="M233.845,241.096c0,2.346-0.75,4.394-2.254,6.142c-1.504,1.754-3.611,2.625-6.316,2.625
			c-1.221,0-2.905-0.05-5.053-0.15c0.106-2.493,0.159-5.3,0.159-8.429c0-3.008-0.053-5.571-0.159-7.693h2.169
			c0.353,0,0.88-0.012,1.583-0.035s1.16-0.038,1.374-0.038c2.978,0,5.139,0.742,6.483,2.228
			C233.171,237.232,233.845,239.018,233.845,241.096z M230.463,241.629c0-1.583-0.465-2.919-1.386-4.005
			c-0.927-1.086-2.337-1.63-4.238-1.63c-0.353,0-0.842,0.038-1.46,0.115c0.082,1.651,0.124,3.376,0.124,5.177
			c0,1.969,0.041,3.929,0.121,5.868c0.536,0.109,1.077,0.159,1.613,0.159c1.775,0,3.087-0.55,3.941-1.651
			C230.033,244.557,230.463,243.215,230.463,241.629z"/>
		<path id="path201" fill="#F9F9FA" d="M250.393,249.719h-3.664c-0.959-2.925-1.692-4.729-2.204-5.412
			c-0.515-0.689-1.339-1.027-2.478-1.027c-0.48,0-0.936,0.003-1.374,0.009c0,2.125,0.038,4.264,0.112,6.43h-3.44
			c0.106-2.496,0.159-5.306,0.159-8.435c0-3.008-0.053-5.568-0.159-7.693h2.143c0.247,0,0.762-0.009,1.554-0.035
			c0.786-0.024,1.516-0.035,2.184-0.035c3.791,0,5.686,1.292,5.686,3.888c0,2.057-1.083,3.487-3.246,4.297v0.185
			c0.836,0.23,1.569,0.883,2.193,1.951C248.483,244.91,249.328,246.867,250.393,249.719z M245.752,238.321
			c0-1.642-1.059-2.463-3.173-2.463c-0.777,0-1.463,0.059-2.057,0.174c0.094,1.28,0.138,2.949,0.138,5.006
			c0.453,0.015,0.836,0.024,1.151,0.024C244.436,241.061,245.752,240.145,245.752,238.321z"/>
		<path id="path203" fill="#F9F9FA" d="M268.148,241.358c0,2.534-0.777,4.635-2.331,6.304c-1.551,1.666-3.473,2.502-5.759,2.502
			c-2.181,0-4.003-0.768-5.471-2.298c-1.474-1.53-2.207-3.476-2.207-5.839c0-2.534,0.777-4.635,2.328-6.304
			c1.554-1.666,3.476-2.499,5.762-2.499c2.178,0,4.003,0.762,5.471,2.29S268.148,238.986,268.148,241.358z M264.729,241.714
			c0-1.725-0.441-3.125-1.324-4.197c-0.886-1.071-1.975-1.607-3.27-1.607c-1.207,0-2.231,0.539-3.073,1.622
			c-0.842,1.077-1.26,2.446-1.26,4.097c0,1.719,0.438,3.117,1.327,4.191c0.889,1.08,1.975,1.619,3.264,1.619
			c1.207,0,2.231-0.544,3.073-1.627C264.308,244.725,264.729,243.359,264.729,241.714z"/>
		<path id="path205" fill="#F9F9FA" d="M275.147,249.719h-3.505c0.109-2.563,0.162-5.371,0.162-8.435
			c0-3.014-0.053-5.58-0.162-7.693h3.505c-0.106,2.084-0.159,4.644-0.159,7.693C274.988,244.395,275.041,247.206,275.147,249.719z"
			/>
		<path id="path207" fill="#F9F9FA" d="M293.096,241.096c0,2.346-0.748,4.394-2.251,6.142c-1.504,1.754-3.611,2.625-6.319,2.625
			c-1.221,0-2.908-0.05-5.05-0.15c0.106-2.493,0.159-5.3,0.159-8.429c0-3.008-0.053-5.571-0.159-7.693h2.166
			c0.353,0,0.883-0.012,1.586-0.035c0.697-0.024,1.16-0.038,1.374-0.038c2.978,0,5.138,0.742,6.483,2.228
			C292.425,237.232,293.096,239.018,293.096,241.096z M289.715,241.629c0-1.583-0.462-2.919-1.383-4.005
			c-0.927-1.086-2.34-1.63-4.238-1.63c-0.353,0-0.842,0.038-1.463,0.115c0.085,1.651,0.127,3.376,0.127,5.177
			c0,1.969,0.038,3.929,0.121,5.868c0.536,0.109,1.071,0.159,1.61,0.159c1.778,0,3.09-0.55,3.944-1.651
			C289.288,244.557,289.715,243.215,289.715,241.629L289.715,241.629z"/>
		<path id="path209" fill="#F9F9FA" d="M316.908,249.719h-3.961c0-0.547-0.377-2.092-1.13-4.635h-5.721
			c-0.774,2.505-1.168,4.047-1.168,4.635h-3.72c0-0.324,0.962-2.967,2.893-7.926c1.925-4.965,2.89-7.699,2.89-8.202h4.679
			c0,0.474,0.871,3.167,2.619,8.082C316.031,246.591,316.908,249.269,316.908,249.719z M311.181,242.718
			c-1.407-4.256-2.113-6.56-2.113-6.907h-0.2c0,0.324-0.724,2.622-2.19,6.907H311.181z"/>
		<path id="path211" fill="#F9F9FA" d="M331.353,237.818c0,1.972-0.736,3.429-2.201,4.367c-1.466,0.945-3.255,1.416-5.386,1.416
			c-0.394,0-0.665-0.009-0.83-0.024c0,1.551,0.041,3.596,0.135,6.142h-3.485c0.106-2.387,0.159-5.2,0.159-8.435
			c0-2.972-0.053-5.536-0.159-7.69h2.154c0.306,0,0.895-0.012,1.766-0.035c0.859-0.024,1.613-0.038,2.254-0.038
			c1.56,0,2.89,0.353,3.967,1.065C330.805,235.295,331.353,236.37,331.353,237.818z M328.162,238.494
			c0-1.763-1.177-2.649-3.514-2.649c-0.595,0-1.213,0.065-1.86,0.185c0.088,1.56,0.135,3.329,0.135,5.3
			c0.2,0.018,0.447,0.024,0.718,0.024C326.655,241.358,328.162,240.404,328.162,238.494z"/>
		<path id="path213" fill="#F9F9FA" d="M346.209,237.818c0,1.972-0.73,3.429-2.195,4.367c-1.466,0.945-3.273,1.416-5.403,1.416
			c-0.377,0-0.659-0.009-0.83-0.024c0,1.551,0.053,3.596,0.141,6.142h-3.479c0.106-2.387,0.159-5.2,0.159-8.435
			c0-2.972-0.053-5.536-0.159-7.69h2.154c0.306,0,0.889-0.012,1.754-0.035c0.871-0.024,1.619-0.038,2.254-0.038
			c1.566,0,2.89,0.353,3.979,1.065C345.667,235.295,346.209,236.37,346.209,237.818z M343.007,238.494
			c0-1.763-1.165-2.649-3.514-2.649c-0.583,0-1.207,0.065-1.86,0.185c0.094,1.56,0.135,3.329,0.135,5.3
			c0.212,0.018,0.447,0.024,0.718,0.024C341.5,241.358,343.007,240.404,343.007,238.494z"/>
		<path id="path215" fill="#F9F9FA" d="M370.489,241.358c0,2.534-0.771,4.635-2.325,6.304c-1.554,1.666-3.467,2.502-5.762,2.502
			c-2.178,0-4.003-0.768-5.468-2.298c-1.466-1.53-2.207-3.476-2.207-5.839c0-2.534,0.771-4.635,2.325-6.304
			c1.554-1.666,3.479-2.499,5.757-2.499c2.184,0,4.008,0.762,5.486,2.29C369.759,237.041,370.489,238.986,370.489,241.358z
			 M367.069,241.714c0-1.725-0.436-3.125-1.324-4.197c-0.883-1.071-1.972-1.607-3.261-1.607c-1.207,0-2.237,0.539-3.078,1.622
			c-0.836,1.077-1.266,2.446-1.266,4.097c0,1.719,0.447,3.117,1.336,4.191c0.889,1.08,1.972,1.619,3.267,1.619
			c1.207,0,2.225-0.544,3.067-1.627C366.651,244.725,367.069,243.359,367.069,241.714z"/>
		<path id="path217" fill="#F9F9FA" d="M387.276,249.719h-3.061c0-0.341-1.13-2.128-3.408-5.365
			c-2.372-3.411-3.72-5.742-4.061-6.996h-0.188c0.2,1.807,0.306,3.443,0.306,4.903c0,2.042,0.059,4.526,0.165,7.458h-3.037
			c0.124-2.56,0.182-5.371,0.182-8.435c0-3.014-0.059-5.58-0.182-7.69h3.679c0,0.439,1.018,2.187,3.049,5.239
			c2.172,3.243,3.42,5.442,3.749,6.601h0.182c-0.2-1.839-0.3-3.493-0.3-4.956c0-2.234-0.059-4.532-0.171-6.884h3.096
			c-0.124,2.048-0.177,4.612-0.177,7.69C387.099,244.389,387.158,247.197,387.276,249.719z"/>
	</g>
</g>
</svg>
