<?xml version="1.0" encoding="utf-8"?>
<!-- Generator: Adobe Illustrator 16.0.0, SVG Export Plug-In . SVG Version: 6.00 Build 0)  -->
<!DOCTYPE svg PUBLIC "-//W3C//DTD SVG 1.1//EN" "http://www.w3.org/Graphics/SVG/1.1/DTD/svg11.dtd">
<svg version="1.1" id="Layer_1" xmlns="http://www.w3.org/2000/svg" xmlns:xlink="http://www.w3.org/1999/xlink" x="0px" y="0px"
	 width="100px" height="50px" viewBox="0 0 100 50" enable-background="new 0 0 100 50" xml:space="preserve">
<g>
	<g>
		<g>
			<path fill="#FFFFFF" d="M48.915,40.794c0.442,0,0.952-0.034,1.53-0.067c0.461-0.033,0.969-0.137,1.496-0.291l-0.287-4.081
				c-0.341,0.054-0.597,0.089-0.767,0.104c-0.747,0.053-1.259,0.018-1.683-0.117c-0.34-0.103-0.629-0.31-0.85-0.612
				c-0.204-0.29-0.341-0.649-0.443-1.124c-0.085-0.442-0.119-1.001-0.119-1.7V21.106h-5.065v12.937c0,2.415,0.543,4.15,1.615,5.203
				C45.43,40.25,46.96,40.794,48.915,40.794z"/>
			<rect x="54.935" y="21.123" fill="#FFFFFF" width="5.015" height="19.435"/>
			<path fill="#FFFFFF" d="M75.37,40.558h5.46l-5.971-10.034l5.765-9.4l-5.916-0.034l-3.163,5.457l-3.331-5.457h-5.663
				c0.936,1.614,1.785,3.042,2.552,4.318c0.358,0.628,0.714,1.24,1.053,1.838c0.34,0.594,0.646,1.12,0.917,1.58
				c0.31,0.543,0.612,1.054,0.884,1.511l0.121,0.206l-6.036,10.03h5.305l4.181-6.647L75.37,40.558z"/>
			<path fill="#FFFFFF" d="M96.404,23.147c-0.803-0.784-1.754-1.361-2.842-1.701c-1.122-0.356-2.348-0.545-3.639-0.545
				c-1.324,0-2.552,0.188-3.658,0.562c-1.087,0.374-2.038,0.951-2.818,1.751c-0.8,0.799-1.432,1.836-1.887,3.077
				c-0.458,1.258-0.7,2.79-0.7,4.576c0,1.801,0.242,3.364,0.7,4.62c0.455,1.26,1.087,2.279,1.887,3.063
				c0.8,0.778,1.731,1.359,2.818,1.699c1.106,0.359,2.334,0.544,3.658,0.544c1.291,0,2.517-0.185,3.639-0.544
				c1.088-0.358,2.057-0.936,2.842-1.699c0.798-0.784,1.427-1.821,1.885-3.063c0.459-1.272,0.697-2.819,0.697-4.62
				c0-1.804-0.238-3.367-0.697-4.629C97.831,24.966,97.184,23.928,96.404,23.147z M92.951,35.216
				c-0.729,0.868-1.751,1.31-3.047,1.31c-1.271,0-2.31-0.441-3.057-1.31c-0.748-0.85-1.106-2.292-1.106-4.367
				c0-2.023,0.373-3.453,1.125-4.355c0.764-0.899,1.785-1.358,3.038-1.358c1.281,0,2.317,0.442,3.047,1.328
				c0.729,0.864,1.087,2.31,1.087,4.386C94.038,32.924,93.68,34.352,92.951,35.216z"/>
		</g>
		<g>
			<path fill="#FFFFFF" d="M42.728,9.817H41.23V7.028h2.448c1.224,0,2.023,0.526,2.193,1.258l0,0
				c0.374-0.407,0.817-0.749,1.344-1.004c0.509-0.271,1.106-0.407,1.786-0.407c1.361,0,2.381,0.357,3.026,1.089
				c0.665,0.73,0.983,1.871,0.983,3.45v7.346h-3.416v-6.767c0-0.697-0.169-1.189-0.509-1.479c-0.34-0.306-0.764-0.441-1.292-0.441
				c-0.442,0-0.816,0.152-1.173,0.441c-0.341,0.29-0.511,0.782-0.511,1.446v6.801H42.71V9.817H42.728z"/>
			<path fill="#FFFFFF" d="M60.731,6.892c0.782,0,1.514,0.101,2.178,0.323c0.68,0.22,1.258,0.562,1.734,1.037
				c0.489,0.476,0.867,1.105,1.139,1.871c0.271,0.764,0.407,1.684,0.407,2.771c0,1.072-0.136,2.006-0.407,2.772
				c-0.271,0.765-0.665,1.376-1.139,1.871c-0.492,0.476-1.073,0.833-1.734,1.036c-0.68,0.222-1.396,0.324-2.178,0.324
				c-0.8,0-1.529-0.102-2.193-0.324c-0.663-0.22-1.24-0.56-1.731-1.036c-0.496-0.477-0.868-1.105-1.144-1.871
				c-0.271-0.766-0.407-1.684-0.407-2.772c0-1.07,0.136-1.972,0.407-2.737c0.275-0.749,0.667-1.377,1.144-1.871
				c0.476-0.492,1.068-0.851,1.731-1.071C59.218,6.993,59.949,6.892,60.731,6.892z M60.731,15.937c0.681,0,1.209-0.221,1.581-0.681
				c0.374-0.442,0.578-1.241,0.578-2.38c0-1.138-0.186-1.938-0.578-2.396c-0.372-0.459-0.9-0.679-1.581-0.679
				c-0.664,0-1.189,0.237-1.582,0.712c-0.391,0.476-0.596,1.26-0.596,2.363c0,1.14,0.189,1.938,0.58,2.38
				C59.542,15.716,60.067,15.937,60.731,15.937z"/>
			<path fill="#FFFFFF" d="M70.866,13.897c-0.815-0.238-1.48-0.613-2.008-1.106c-0.524-0.492-0.781-1.206-0.781-2.142
				c0-1.173,0.408-2.074,1.241-2.737c0.814-0.664,1.956-0.986,3.417-0.986c0.561,0,1.121,0.067,1.717,0.187
				c0.595,0.119,1.325,0.34,2.208,0.647l-1.34,2.431c-0.461-0.17-0.868-0.289-1.209-0.374c-0.34-0.085-0.73-0.12-1.154-0.12
				c-0.41,0-0.714,0.052-0.954,0.17c-0.235,0.12-0.354,0.289-0.354,0.544c0,0.204,0.083,0.357,0.256,0.442
				c0.166,0.085,0.407,0.187,0.681,0.289l1.202,0.358c0.408,0.119,0.786,0.255,1.14,0.424c0.359,0.171,0.646,0.375,0.902,0.612
				c0.238,0.254,0.442,0.561,0.578,0.936c0.136,0.374,0.224,0.833,0.224,1.376c0,0.579-0.121,1.105-0.359,1.582
				c-0.236,0.492-0.562,0.901-1,1.276c-0.446,0.355-0.989,0.646-1.619,0.849c-0.628,0.204-1.36,0.305-2.176,0.305
				c-0.305,0-0.61-0.017-0.92-0.034c-0.287-0.017-0.573-0.067-0.864-0.119c-0.291-0.05-0.578-0.119-0.902-0.221
				c-0.32-0.085-0.645-0.187-1-0.323c0.03-0.103,0.067-0.22,0.083-0.356c0.033-0.136,0.067-0.306,0.136-0.509
				c0.068-0.207,0.12-0.444,0.205-0.733c0.067-0.289,0.169-0.628,0.287-1.053c0.629,0.17,1.156,0.289,1.58,0.357
				c0.428,0.068,0.854,0.119,1.295,0.119c0.188,0,0.374-0.017,0.576-0.051c0.205-0.034,0.39-0.085,0.578-0.152
				c0.188-0.068,0.325-0.17,0.442-0.29c0.121-0.119,0.188-0.273,0.188-0.477c0-0.221-0.084-0.373-0.237-0.476
				c-0.155-0.085-0.394-0.187-0.717-0.289L70.866,13.897z"/>
			<path fill="#FFFFFF" d="M80.658,13.897c-0.816-0.238-1.477-0.613-2.006-1.106c-0.527-0.492-0.781-1.206-0.781-2.142
				c0-1.173,0.408-2.074,1.242-2.737c0.815-0.664,1.951-0.986,3.416-0.986c0.563,0,1.121,0.067,1.718,0.187
				c0.593,0.119,1.323,0.34,2.211,0.647l-1.347,2.431c-0.457-0.17-0.864-0.289-1.204-0.374c-0.34-0.085-0.732-0.12-1.155-0.12
				c-0.411,0-0.718,0.052-0.954,0.17c-0.237,0.12-0.355,0.289-0.355,0.544c0,0.204,0.082,0.357,0.253,0.442
				c0.169,0.085,0.407,0.187,0.681,0.289l1.207,0.358c0.408,0.119,0.781,0.255,1.14,0.424c0.358,0.171,0.645,0.375,0.902,0.612
				c0.233,0.254,0.438,0.561,0.574,0.936c0.138,0.374,0.222,0.833,0.222,1.376c0,0.579-0.117,1.105-0.358,1.582
				c-0.234,0.492-0.56,0.901-1,1.276c-0.442,0.355-0.988,0.646-1.615,0.849c-0.628,0.204-1.362,0.305-2.18,0.305
				c-0.302,0-0.609-0.017-0.916-0.034c-0.287-0.017-0.577-0.067-0.868-0.119c-0.286-0.05-0.573-0.119-0.902-0.221
				c-0.319-0.085-0.642-0.187-1-0.323c0.033-0.103,0.067-0.22,0.086-0.356c0.03-0.136,0.068-0.306,0.137-0.509
				c0.067-0.207,0.118-0.444,0.203-0.733c0.068-0.289,0.166-0.628,0.287-1.053c0.632,0.17,1.159,0.289,1.582,0.357
				c0.423,0.068,0.85,0.119,1.293,0.119c0.187,0,0.372-0.017,0.575-0.051c0.204-0.034,0.393-0.085,0.582-0.152
				c0.185-0.068,0.321-0.17,0.44-0.29c0.121-0.119,0.189-0.273,0.189-0.477c0-0.221-0.088-0.373-0.241-0.476
				c-0.15-0.085-0.389-0.187-0.715-0.289L80.658,13.897z"/>
			<path fill="#FFFFFF" d="M93.493,6.892c0.786,0,1.516,0.101,2.176,0.323c0.684,0.22,1.26,0.562,1.737,1.037
				c0.492,0.476,0.866,1.105,1.14,1.871c0.271,0.764,0.407,1.684,0.407,2.771c0,1.072-0.137,2.006-0.407,2.772
				c-0.273,0.765-0.665,1.376-1.14,1.871c-0.496,0.476-1.069,0.833-1.737,1.036c-0.679,0.222-1.39,0.324-2.176,0.324
				c-0.796,0-1.531-0.102-2.191-0.324c-0.661-0.22-1.242-0.56-1.737-1.036c-0.49-0.477-0.864-1.105-1.135-1.871
				c-0.273-0.766-0.407-1.684-0.407-2.772c0-1.07,0.134-1.972,0.407-2.737c0.271-0.749,0.659-1.377,1.135-1.871
				c0.476-0.492,1.076-0.851,1.737-1.071C91.962,6.993,92.697,6.892,93.493,6.892z M93.493,15.937c0.681,0,1.21-0.221,1.583-0.681
				c0.374-0.442,0.578-1.241,0.578-2.38c0-1.138-0.188-1.938-0.578-2.396C94.703,10.021,94.174,9.8,93.493,9.8
				c-0.659,0-1.188,0.237-1.58,0.712c-0.389,0.476-0.593,1.26-0.593,2.363c0,1.14,0.185,1.938,0.575,2.38
				C92.29,15.716,92.815,15.937,93.493,15.937z"/>
		</g>
	</g>
	<path fill="#FFFFFF" d="M37.881,18.979c0-10.184-8.262-18.447-18.448-18.447C9.25,0.533,0.986,8.796,0.986,18.979
		c0,4.065,1.309,7.803,3.537,10.864l0,0c0,0,0,0,13.177,18.603c0.289,0.407,0.833,1.034,1.75,1.034c0.869,0,1.463-0.627,1.752-1.034
		c13.16-18.603,13.176-18.603,13.176-18.603l0,0C36.554,26.802,37.881,23.044,37.881,18.979z M8.349,17.74l-1.326-0.495
		c0,0,2.09-2.21,5.151-2.668l1.853,5.576l-1.751-0.764c0,0-2.415,4.013-0.595,7.074C11.73,26.531,7.736,22.874,8.349,17.74z
		 M12.191,23.945c2.924,1.752,5.355,0.255,5.355,0.255l0.458,4.83C10.219,29.029,12.191,23.945,12.191,23.945z M15.557,14.254
		l-4.42-2.023c3.876-6.75,7.311-2.499,7.311-2.499C15.472,11.396,15.557,14.254,15.557,14.254z M16.526,8.048
		c-0.102,0,5.051-1.632,9.199,1.444l1.087-0.883c0,0,0.868,2.906-0.254,5.798l-5.747-1.174l1.531-1.138
		C22.357,12.095,20.08,7.997,16.526,8.048z M24.195,28.705l0.22,1.377c0,0-2.957-0.698-4.896-3.111l3.895-4.386l0.221,1.904
		c0,0,4.692,0.084,6.409-3.026C30.111,21.361,28.937,26.647,24.195,28.705z M27.629,22.262c0.051-3.401-2.466-4.76-2.466-4.76
		l3.961-2.823C33.02,21.429,27.629,22.262,27.629,22.262z"/>
</g>
</svg>
