<?xml version="1.0" encoding="utf-8"?>
<!-- Generator: Adobe Illustrator 16.0.0, SVG Export Plug-In . SVG Version: 6.00 Build 0)  -->
<!DOCTYPE svg PUBLIC "-//W3C//DTD SVG 1.1//EN" "http://www.w3.org/Graphics/SVG/1.1/DTD/svg11.dtd">
<svg version="1.1" id="Layer_1" xmlns="http://www.w3.org/2000/svg" xmlns:xlink="http://www.w3.org/1999/xlink" x="0px" y="0px"
	 width="67px" height="67px" viewBox="0 0 67 67" enable-background="new 0 0 67 67" xml:space="preserve">
<path fill="#FFFFFF" d="M29.765,50.32h6.744V33.998h4.499l0.596-5.624h-5.095l0.007-2.816c0-1.466,0.141-2.253,2.244-2.253h2.812
	V17.68h-4.5c-5.405,0-7.307,2.729-7.307,7.317v3.377h-3.369v5.625h3.369V50.32z M34,64C17.432,64,4,50.568,4,34
	C4,17.431,17.432,4,34,4c16.568,0,30,13.431,30,30C64,50.568,50.568,64,34,64z"/>
</svg>
