<?xml version="1.0" encoding="utf-8"?>
<!-- Generator: Adobe Illustrator 16.0.0, SVG Export Plug-In . SVG Version: 6.00 Build 0)  -->
<!DOCTYPE svg PUBLIC "-//W3C//DTD SVG 1.1//EN" "http://www.w3.org/Graphics/SVG/1.1/DTD/svg11.dtd">
<svg version="1.1" id="Layer_1" xmlns="http://www.w3.org/2000/svg" xmlns:xlink="http://www.w3.org/1999/xlink" x="0px" y="0px"
	 width="67px" height="67px" viewBox="0 0 67 67" enable-background="new 0 0 67 67" xml:space="preserve">
<path fill="#FFFFFF" d="M21.543,34.568c-0.054,0,0.592,1.367,0.61,1.367c1.41,2.516,4.128,4.08,8.713,4.514
	c-0.654,0.488-1.44,1.414-1.549,2.484c-0.823,0.522-2.478,0.695-3.764,0.297c-1.803-0.56-2.493-4.066-5.192-3.566
	c-0.584,0.107-0.468,0.486,0.037,0.809c0.823,0.523,1.597,1.178,2.194,2.571c0.459,1.07,1.423,2.981,4.473,2.981
	c1.21,0,2.058-0.144,2.058-0.144s0.023,2.731,0.023,3.793c0,1.226-1.682,1.57-1.682,2.159c0,0.232,0.557,0.255,1.004,0.255
	c0.884,0,2.723-0.725,2.723-1.998c0-1.011,0.017-4.409,0.017-5.006c0-1.3,0.709-1.712,0.709-1.712s0.088,6.939-0.169,7.872
	c-0.302,1.094-0.847,0.938-0.847,1.427c0,0.727,2.214,0.18,2.948-1.416c0.567-1.238,0.319-8.05,0.319-8.05l0.605-0.013
	c0,0,0.033,3.117,0.013,4.543c-0.021,1.476-0.122,3.342,0.771,4.222c0.586,0.579,2.483,1.594,2.483,0.666
	c0-0.539-1.04-0.981-1.04-2.44v-6.716c0.831,0,0.706,2.208,0.706,2.208l0.062,4.104c0,0-0.185,1.494,1.645,2.119
	c0.645,0.223,2.025,0.283,2.09-0.09s-1.662-0.929-1.678-2.084c-0.01-0.707,0.031-1.119,0.031-4.188s-0.418-4.202-1.879-5.105
	c4.508-0.455,7.299-1.552,8.657-4.486c0.106,0.003,0.556-1.371,0.496-1.371c0.306-1.108,0.47-2.419,0.502-3.971
	c-0.008-4.21-2.058-5.699-2.45-6.398c0.58-3.187-0.099-4.637-0.412-5.135c-1.162-0.406-4.041,1.045-5.615,2.067
	c-2.564-0.737-7.986-0.666-10.02,0.19c-3.751-2.639-5.736-2.235-5.736-2.235s-1.283,2.259-0.339,5.565
	c-1.234,1.546-2.154,2.64-2.154,5.539C20.906,31.83,21.102,33.292,21.543,34.568z M34,64C17.432,64,4,50.568,4,34
	C4,17.431,17.432,4,34,4c16.568,0,30,13.431,30,30C64,50.568,50.568,64,34,64z"/>
</svg>
